<svg version="1.2" xmlns="http://www.w3.org/2000/svg" viewBox="0 0 16 12" width="16" height="12"><style>.a{fill:#fff}</style><path class="a" d="m14.4 3q0 0.2 0 0.4c0 4-3.3 8.6-9.4 8.6-1.8 0-3.5-0.5-5-1.4q0.4 0.1 0.8 0.1c1.5 0 2.9-0.5 4.1-1.3-1.5 0-2.7-0.9-3.1-2.1q0.3 0 0.6 0 0.5 0 0.9-0.1c-1.5-0.3-2.7-1.5-2.7-2.9q0-0.1 0-0.1 0.7 0.4 1.5 0.4c-0.9-0.5-1.4-1.5-1.4-2.5q0-0.9 0.4-1.5c1.6 1.8 4.1 3 6.8 3.1q-0.1-0.3-0.1-0.7c0-1.6 1.5-3 3.3-3 0.9 0 1.8 0.4 2.4 1q1.1-0.2 2.1-0.8c-0.3 0.7-0.8 1.3-1.5 1.7q1-0.1 1.9-0.5-0.7 0.9-1.6 1.6z"/></svg>