<svg version="1.2" xmlns="http://www.w3.org/2000/svg" viewBox="0 0 17 14" width="17" height="14"><style>.a{fill:#fff}</style><path class="a" d="m14.5 2.8q1-0.1 1.9-0.5-0.7 1-1.6 1.7v0.4c0 4.2-3.3 9.1-9.3 9.1-1.9 0-3.6-0.6-5.1-1.5q0.4 0.1 0.8 0.1c1.5 0 3-0.5 4.1-1.4-1.5 0-2.7-0.9-3.1-2.2q0.3 0.1 0.6 0.1 0.5 0 0.9-0.2c-1.5-0.2-2.6-1.5-2.6-3.1q0.6 0.3 1.5 0.4c-0.9-0.6-1.5-1.6-1.5-2.7q0-0.9 0.4-1.6c1.7 2 4.1 3.2 6.8 3.4q-0.1-0.4-0.1-0.8c0-1.7 1.5-3.2 3.3-3.2 0.9 0 1.8 0.4 2.4 1q1.1-0.2 2.1-0.7c-0.3 0.7-0.8 1.3-1.5 1.7z"/></svg>