<svg version="1.2" xmlns="http://www.w3.org/2000/svg" width="53" height="40"><path fill-rule="evenodd" d="M15.2 34.2c-.4.4-1 .4-1.4 0L.4 20.7c-.4-.4-.4-1 0-1.4L13.8 5.8c.4-.4 1-.4 1.4 0l1.4 1.5c.4.4.4.9 0 1.3L5.3 20l11.3 11.4c.4.4.4.9 0 1.3zM33.7 1.8c.1-.4-.1-1-.6-1.1L31.3.2c-.5-.1-1 .1-1.1.6L19.4 38.3c-.2.4.1 1 .6 1.1l1.8.5c.5.2 1-.1 1.1-.6zm19 18.8c.4-.3.4-.9 0-1.3L39.2 5.8c-.3-.4-.9-.4-1.3 0l-1.4 1.4c-.4.4-.4 1 0 1.4L47.8 20 36.5 31.4c-.4.3-.4.9 0 1.3l1.4 1.4c.4.4 1 .4 1.3 0z" style="fill:#c0301c"/></svg>