<svg version="1.2" xmlns="http://www.w3.org/2000/svg" width="17" height="16"><path fill-rule="evenodd" d="M5.7 0h4.1v.1c0 .4-.8.5-1.4.6-.1 0-.5.1-.6.1C8.8 1.3 9 2.2 9 3.4c0 1.5-.6 2.2-1.2 2.8-.4.3-.7.5-.7.9 0 .3.4.7.9 1.1.8.6 1.8 1.5 1.8 3.1q0 2.3-2 3.3c-1.1.5-2.3.6-2.7.6h-.2C4.2 15.2.7 15 .7 12s3.8-3.2 4.9-3.2h.1C5 7.9 5.1 7 5.1 7q0 .1-.2.1c-.4 0-1.3-.1-2-.6q-1.3-.8-1.3-2.7C1.6.1 5.7 0 5.7 0zm2.5 11.5c.1 1.3-1 2.1-2.6 2.3-1.6.1-3-.6-3.1-1.8 0-.6.3-1.2.8-1.7.5-.4 1.2-.7 2-.7q.2-.1.3-.1c1.5 0 2.5.9 2.6 2zM7.1 3c.4 1.3-.2 2.7-1.1 3q-.2.1-.4.1c-.9 0-1.7-.9-2.1-2.1q-.2-1 .1-1.8c.2-.6.5-1 1-1.1h.3c1.1 0 1.8.4 2.2 1.9zM14 5.9V3.3h-1.6v2.6H9.7v1.7h2.7v2.5H14V7.6h2.7V5.9z" style="fill:#fff"/></svg>